<?xml version="1.0" encoding="UTF-8"?>
<svg width="20px" height="20px" viewBox="0 0 20 20" version="1.1" xmlns="http://www.w3.org/2000/svg" xmlns:xlink="http://www.w3.org/1999/xlink">
    <!-- Generator: Sketch 53.2 (72643) - https://sketchapp.com -->
    <title>赢率</title>
    <desc>Created with Sketch.</desc>
    <g id="0921版本" stroke="none" stroke-width="1" fill="none" fill-rule="evenodd">
        <g id="首页0922" transform="translate(-500.000000, -493.000000)" fill="#5915E1" fill-rule="nonzero">
            <g id="Group-20-Copy-3" transform="translate(470.000000, 467.000000)">
                <g id="Group-24" transform="translate(30.000000, 26.000000)">
                    <g id="赢率">
                        <path d="M19.5002,9.49581834 L10.4914367,9.49581834 C10.4855267,6.49714292 10.4821935,3.49846297 10.481437,0.499781816 L10.481437,0.497963711 C10.481437,0.461601406 10.4687102,0.430693437 10.4614378,0.397967344 C10.4541653,0.366150312 10.4541653,0.332515176 10.4423476,0.304334395 C10.4323479,0.280698887 10.4132577,0.262517734 10.3996218,0.240700332 C10.3796226,0.207974258 10.3623505,0.172520996 10.3359878,0.14615832 C10.3187157,0.129795273 10.2959892,0.120704707 10.2778081,0.107068828 C10.245082,0.0825242578 10.214174,0.0552525391 10.1769027,0.0388894922 C10.1149872,0.013137936 10.0485101,0.000151697275 9.98145521,0.0007090625 C4.47620086,0.0125268164 0,4.49600014 0,9.99489109 C0,12.7457002 1.08814225,15.304698 3.06352496,17.2000836 C4.92074173,19.0001112 7.40689872,20.004619 9.99327297,19.9999818 C15.5103451,19.9999818 19.9992728,15.5110541 19.9992728,9.99489109 C19.9995141,9.86237133 19.94704,9.73519656 19.8534195,9.64140556 C19.759799,9.54761456 19.63272,9.49490906 19.5002,9.49490928 L19.5002,9.49581834 Z M9.48238246,1.02521727 C9.48329152,4.45963783 9.49238209,8.95401986 9.49420021,9.83035162 L9.45511072,9.79217119 C9.45511072,9.79217119 5.9034217,13.4956729 3.409876,16.1155776 C1.85372006,14.4582684 0.990795378,12.2682677 0.998145527,9.99489109 C0.998145527,5.2132468 4.76164504,1.29793463 9.48238246,1.02521727 L9.48238246,1.02521727 Z M9.99418203,19.0018363 C7.83834182,19.003014 5.75493343,18.2238348 4.12894076,16.8082797 C6.58430602,14.2274645 10.0650885,10.5985055 10.1650849,10.4939638 L18.9756736,10.4939638 C18.714774,15.2274281 14.7921894,19.0018363 9.99418203,19.0018363 Z" id="Shape"></path>
                        <path d="M12.3313698,8.04859824 L19.1783935,8.04859824 C19.2216798,8.04831384 19.2647531,8.04250964 19.3065707,8.03132613 C19.3256609,8.02678084 19.3392967,8.01314498 19.3574779,8.00678156 C19.4253175,7.98017372 19.4862377,7.93852417 19.5356532,7.88496781 C19.547471,7.872241 19.563834,7.86678666 19.5738337,7.8531508 C19.5801971,7.84587834 19.5801971,7.83496965 19.5865605,7.82678813 C19.6135436,7.78527606 19.6340791,7.73991406 19.6474674,7.69224756 C19.6538308,7.67224828 19.6638304,7.65497619 19.6674666,7.63406785 C19.6808963,7.56354675 19.6787244,7.49094055 19.6611032,7.42134832 C18.7262103,3.91740352 15.9690526,1.19328439 12.4540926,0.300698164 C12.3839805,0.284078709 12.3111011,0.282838209 12.240464,0.297061934 C12.2222828,0.299789102 12.2077379,0.30978875 12.1913749,0.315243086 C12.1402588,0.329109294 12.0917453,0.351216681 12.0477437,0.380695254 C12.0404712,0.385240547 12.0313807,0.386149609 12.0250173,0.391603945 C12.0122904,0.400694531 12.0068361,0.416148516 11.9950184,0.42796625 C11.9411608,0.477839715 11.8994838,0.539422103 11.8732046,0.607959707 C11.8659321,0.627049922 11.8522963,0.641594844 11.847751,0.662503184 C11.8413876,0.687047754 11.8459329,0.710683242 11.8441148,0.735227812 C11.8422966,0.752499902 11.832297,0.767953887 11.832297,0.785225996 L11.832297,7.54861641 C11.832297,7.82406094 12.0559252,8.04768916 12.3313698,8.04768918 L12.3313698,8.04859824 Z M12.8313516,1.47338279 C12.932257,1.50701793 13.0367987,1.53519873 13.136795,1.57337914 C13.2758809,1.62519543 13.4131486,1.6779208 13.5485982,1.73700957 C13.764954,1.82973348 13.9758554,1.93336607 14.1831206,2.04245301 C14.3085706,2.10881424 14.4358387,2.17244828 14.5576524,2.24517291 C14.7749173,2.37244102 14.9821825,2.51425404 15.1867205,2.65879422 C15.2858078,2.72879168 15.3894404,2.79242572 15.4848915,2.86605941 C15.7776081,3.09150576 16.058507,3.33149703 16.3212247,3.59057852 L16.3548598,3.6278499 C16.6048507,3.87693176 16.8393877,4.14237664 17.0584706,4.41963928 C17.1348315,4.51690848 17.2011927,4.62145012 17.2739173,4.72144648 C17.4193666,4.92143922 17.5620887,5.12506816 17.6911749,5.33778771 C17.7657176,5.46051053 17.8320788,5.58868768 17.9002582,5.71504672 C18.0111632,5.91867568 18.1166139,6.12594086 18.211156,6.33956947 C18.2720628,6.47592814 18.3284244,6.61410494 18.3820588,6.75409984 C18.4193302,6.85045998 18.4484201,6.95136539 18.4820552,7.05045271 L12.8304425,7.05045271 L12.8304425,1.47338279 L12.8313516,1.47338279 Z" id="Shape"></path>
                    </g>
                </g>
            </g>
        </g>
    </g>
</svg>